# xmcd
#
# Track frame offsets: 
#        150
#        21187
#        37321
#        58155
#        66936
#        83246
#        101850
#        125656
#        145204
#        168557
#        183885
#
# Disc length: 2701 seconds
#
# Revision: 0
# Processed by: cddbd v1.5.2PL0 Copyright (c) Steve Scherf et al.
# Submitted via: ExactAudioCopy v1.0b1
#
DISCID=a50a8b0b
DTITLE=The Little Elmore Reed Blues Band - The Little Elmore Reed Blue
DTITLE=s Band
DYEAR=2012
DGENRE=Blues
TTITLE0=The G.P. Blues
TTITLE1=My Love Is Here To Stay
TTITLE2=I Can Tell
TTITLE3=Young Girl
TTITLE4=It's Wrong
TTITLE5=Schoolgirl
TTITLE6=Country Boy
TTITLE7=Tick Tock
TTITLE8=You're The One
TTITLE9=Hey Little Girl
TTITLE10=Kissing At Midnight
EXTD=
EXTT0=
EXTT1=
EXTT2=
EXTT3=
EXTT4=
EXTT5=
EXTT6=
EXTT7=
EXTT8=
EXTT9=
EXTT10=
PLAYORDER=
